<svg xmlns="http://www.w3.org/2000/svg" width="1200" height="760" viewBox="0 0 1200 760" role="img" aria-labelledby="title desc">
  <title id="title">.ontos Protocol viewer screenshot</title>
  <desc id="desc">A browser viewer showing a structured .ontos release document with search, export, nodes, fields, and verification steps.</desc>
  <rect width="1200" height="760" fill="#f7f9fc"/>
  <rect x="44" y="44" width="1112" height="672" rx="18" fill="#ffffff" stroke="#cfd7e3"/>
  <rect x="44" y="44" width="1112" height="54" rx="18" fill="#14202e"/>
  <circle cx="76" cy="71" r="7" fill="#ff6b6b"/>
  <circle cx="100" cy="71" r="7" fill="#ffd166"/>
  <circle cx="124" cy="71" r="7" fill="#06d6a0"/>
  <text x="164" y="77" font-family="Inter, Arial, sans-serif" font-size="18" fill="#f8fafc">.ontos Protocol viewer</text>
  <rect x="74" y="126" width="1052" height="68" rx="10" fill="#eef4fb" stroke="#d8e2ef"/>
  <text x="98" y="154" font-family="Inter, Arial, sans-serif" font-size="17" font-weight="700" fill="#14202e">Website demo project</text>
  <text x="98" y="178" font-family="Inter, Arial, sans-serif" font-size="13" fill="#536071">3 nodes · 12 fields · local file mode</text>
  <rect x="786" y="142" width="118" height="34" rx="7" fill="#0b6bcb"/>
  <text x="814" y="164" font-family="Inter, Arial, sans-serif" font-size="13" font-weight="700" fill="#ffffff">Export JSON</text>
  <rect x="918" y="142" width="92" height="34" rx="7" fill="#ffffff" stroke="#b7c3d4"/>
  <text x="941" y="164" font-family="Inter, Arial, sans-serif" font-size="13" font-weight="700" fill="#14202e">Search</text>
  <rect x="1022" y="142" width="80" height="34" rx="7" fill="#ffffff" stroke="#b7c3d4"/>
  <text x="1045" y="164" font-family="Inter, Arial, sans-serif" font-size="13" font-weight="700" fill="#14202e">Pack</text>
  <rect x="74" y="222" width="300" height="448" rx="12" fill="#fbfcfe" stroke="#d8e2ef"/>
  <text x="98" y="254" font-family="Inter, Arial, sans-serif" font-size="14" font-weight="800" fill="#14202e">Node tree</text>
  <rect x="98" y="278" width="222" height="38" rx="8" fill="#0b6bcb"/>
  <text x="118" y="302" font-family="Inter, Arial, sans-serif" font-size="14" font-weight="700" fill="#ffffff">Public release</text>
  <text x="118" y="348" font-family="Inter, Arial, sans-serif" font-size="14" fill="#14202e">Viewer demo</text>
  <line x1="106" y1="326" x2="106" y2="360" stroke="#9aa8ba"/>
  <line x1="106" y1="344" x2="112" y2="344" stroke="#9aa8ba"/>
  <text x="138" y="390" font-family="Inter, Arial, sans-serif" font-size="14" fill="#14202e">AI pack</text>
  <line x1="126" y1="366" x2="126" y2="402" stroke="#9aa8ba"/>
  <line x1="126" y1="386" x2="132" y2="386" stroke="#9aa8ba"/>
  <rect x="98" y="430" width="238" height="1" fill="#d8e2ef"/>
  <text x="98" y="464" font-family="Inter, Arial, sans-serif" font-size="13" fill="#536071">Tags</text>
  <rect x="98" y="482" width="68" height="24" rx="12" fill="#e6f4ee"/>
  <text x="115" y="499" font-family="Inter, Arial, sans-serif" font-size="12" fill="#087f5b">release</text>
  <rect x="174" y="482" width="54" height="24" rx="12" fill="#eef4fb"/>
  <text x="191" y="499" font-family="Inter, Arial, sans-serif" font-size="12" fill="#0b6bcb">local</text>
  <rect x="404" y="222" width="722" height="448" rx="12" fill="#ffffff" stroke="#d8e2ef"/>
  <text x="436" y="258" font-family="Inter, Arial, sans-serif" font-size="24" font-weight="800" fill="#14202e">Public release</text>
  <text x="436" y="286" font-family="Inter, Arial, sans-serif" font-size="13" fill="#536071">id: public-release · path: Public release</text>
  <rect x="436" y="318" width="626" height="54" rx="9" fill="#f7f9fc" stroke="#d8e2ef"/>
  <text x="456" y="341" font-family="Inter, Arial, sans-serif" font-size="13" font-weight="700" fill="#536071">purpose</text>
  <text x="456" y="359" font-family="Inter, Arial, sans-serif" font-size="14" fill="#14202e">Show how .ontos keeps release context structured.</text>
  <rect x="436" y="388" width="626" height="54" rx="9" fill="#f7f9fc" stroke="#d8e2ef"/>
  <text x="456" y="411" font-family="Inter, Arial, sans-serif" font-size="13" font-weight="700" fill="#536071">ai_task</text>
  <text x="456" y="429" font-family="Inter, Arial, sans-serif" font-size="14" fill="#14202e">Identify unchecked launch blockers.</text>
  <rect x="436" y="458" width="626" height="54" rx="9" fill="#fff8e8" stroke="#ead38f"/>
  <text x="456" y="481" font-family="Inter, Arial, sans-serif" font-size="13" font-weight="700" fill="#8a6400">ai_boundary</text>
  <text x="456" y="499" font-family="Inter, Arial, sans-serif" font-size="14" fill="#14202e">Use only public repository context.</text>
  <rect x="436" y="528" width="626" height="94" rx="9" fill="#f7f9fc" stroke="#d8e2ef"/>
  <text x="456" y="551" font-family="Inter, Arial, sans-serif" font-size="13" font-weight="700" fill="#536071">verify</text>
  <circle cx="462" cy="575" r="4" fill="#0b6bcb"/>
  <text x="476" y="580" font-family="Inter, Arial, sans-serif" font-size="14" fill="#14202e">Run npm run release:check.</text>
  <circle cx="462" cy="601" r="4" fill="#0b6bcb"/>
  <text x="476" y="606" font-family="Inter, Arial, sans-serif" font-size="14" fill="#14202e">Confirm examples validate and export.</text>
</svg>
