<svg xmlns="http://www.w3.org/2000/svg" width="1280" height="720" viewBox="0 0 1280 720" role="img" aria-labelledby="title desc">
  <title id="title">.ontos Protocol VS Code extension screenshot</title>
  <desc id="desc">Default .ontos tree custom editor with optional node tree, diagnostics, and commands.</desc>
  <rect width="1280" height="720" fill="#f7f8fb"/>
  <rect x="48" y="48" width="1184" height="624" rx="8" fill="#ffffff" stroke="#d9dee8"/>
  <rect x="48" y="48" width="1184" height="46" rx="8" fill="#202533"/>
  <circle cx="74" cy="71" r="6" fill="#ff6b6b"/>
  <circle cx="96" cy="71" r="6" fill="#ffd166"/>
  <circle cx="118" cy="71" r="6" fill="#06d6a0"/>
  <text x="152" y="77" font-family="Arial, sans-serif" font-size="16" fill="#f8fafc">project-state.ontos</text>
  <rect x="48" y="94" width="256" height="578" fill="#eef2f7"/>
  <text x="72" y="136" font-family="Arial, sans-serif" font-size="14" fill="#546179">NODE TREE</text>
  <text x="72" y="176" font-family="Arial, sans-serif" font-size="18" font-weight="700" fill="#202533">Project state example</text>
  <text x="88" y="216" font-family="Arial, sans-serif" font-size="16" fill="#2d6cdf">Formal release</text>
  <text x="104" y="250" font-family="Arial, sans-serif" font-size="15" fill="#546179">Toolchain</text>
  <text x="120" y="282" font-family="Arial, sans-serif" font-size="15" fill="#546179">Release gate</text>
  <rect x="320" y="122" width="590" height="522" rx="6" fill="#fbfcff" stroke="#e3e8f2"/>
  <rect x="320" y="122" width="590" height="48" rx="6" fill="#ffffff" stroke="#e3e8f2"/>
  <text x="346" y="152" font-family="Arial, sans-serif" font-size="17" font-weight="700" fill="#202533">Project state example</text>
  <text x="702" y="152" font-family="Arial, sans-serif" font-size="13" fill="#546179">6 nodes</text>
  <rect x="774" y="134" width="54" height="24" rx="4" fill="#ffffff" stroke="#cbd5e1"/>
  <text x="788" y="151" font-family="Arial, sans-serif" font-size="12" fill="#202533">Expand</text>
  <rect x="838" y="134" width="58" height="24" rx="4" fill="#ffffff" stroke="#cbd5e1"/>
  <text x="850" y="151" font-family="Arial, sans-serif" font-size="12" fill="#202533">Collapse</text>
  <rect x="346" y="202" width="528" height="34" rx="5" fill="#eef6ff"/>
  <text x="364" y="224" font-family="Arial, sans-serif" font-size="16" fill="#202533">▾ Formal release</text>
  <text x="510" y="224" font-family="Arial, sans-serif" font-size="13" fill="#2d6cdf">#release</text>
  <text x="826" y="224" font-family="Arial, sans-serif" font-size="13" fill="#2d6cdf">Edit</text>
  <text x="386" y="260" font-family="Arial, sans-serif" font-size="14" fill="#546179">status: active</text>
  <text x="386" y="292" font-family="Arial, sans-serif" font-size="14" fill="#546179">verify: Run release checks</text>
  <rect x="374" y="324" width="500" height="32" rx="5" fill="#ffffff" stroke="#e3e8f2"/>
  <text x="394" y="345" font-family="Arial, sans-serif" font-size="15" fill="#202533">▸ Toolchain</text>
  <rect x="374" y="366" width="500" height="32" rx="5" fill="#ffffff" stroke="#e3e8f2"/>
  <text x="394" y="387" font-family="Arial, sans-serif" font-size="15" fill="#202533">▸ Release gate</text>
  <rect x="346" y="424" width="528" height="34" rx="5" fill="#f8fafc" stroke="#e3e8f2"/>
  <text x="364" y="446" font-family="Arial, sans-serif" font-size="16" fill="#202533">▸ AI handoff</text>
  <rect x="936" y="122" width="264" height="206" rx="6" fill="#ffffff" stroke="#d9dee8"/>
  <text x="960" y="160" font-family="Arial, sans-serif" font-size="14" fill="#546179">DIAGNOSTICS</text>
  <rect x="960" y="184" width="216" height="48" rx="6" fill="#e9f7ef"/>
  <text x="980" y="214" font-family="Arial, sans-serif" font-size="16" fill="#17643a">No issues found</text>
  <rect x="936" y="352" width="264" height="292" rx="6" fill="#ffffff" stroke="#d9dee8"/>
  <text x="960" y="390" font-family="Arial, sans-serif" font-size="14" fill="#546179">COMMANDS</text>
  <text x="960" y="430" font-family="Arial, sans-serif" font-size="16" fill="#202533">Validate document</text>
  <text x="960" y="466" font-family="Arial, sans-serif" font-size="16" fill="#202533">Format document</text>
  <text x="960" y="502" font-family="Arial, sans-serif" font-size="16" fill="#202533">Export Markdown</text>
  <text x="960" y="538" font-family="Arial, sans-serif" font-size="16" fill="#202533">Export HTML</text>
  <text x="960" y="574" font-family="Arial, sans-serif" font-size="16" fill="#202533">Open as Text / Tree</text>
  <text x="960" y="610" font-family="Arial, sans-serif" font-size="16" fill="#202533">Create AI packs</text>
</svg>
